<svg width="88" height="88" viewBox="0 0 88 88" fill="none" xmlns="http://www.w3.org/2000/svg">
<circle cx="44" cy="44" r="44" fill="#BE6853"/>
<path fill-rule="evenodd" clip-rule="evenodd" d="M45.5909 67C51.0606 66.6599 62 62.001 62 50.1667C62 41.7012 56.2796 36.7438 51.1875 32.331C47.3814 29.0326 43.9265 26.0385 43.4736 22.1111C43.4736 21.2609 43.7912 18.1323 45.0616 16.5C42.2385 17.6902 34.9985 23.1313 36.5865 31.803C36.6908 32.2051 36.8019 32.6247 36.9166 33.0578C38.5483 39.2182 40.8989 48.0928 34.4751 47.6162C32.8859 47.4983 29.9229 45.0657 32.8871 40.9848C30.5934 41.835 26.006 45.3717 26.006 52.7172C25.8413 56.8427 29.0262 65.7066 42.5296 66.8725C42.1434 66.4253 41.8751 65.9704 41.4903 65.3179L41.4903 65.3178C41.2404 64.894 40.9413 64.3868 40.5288 63.7443C40.4511 63.663 40.372 63.5586 40.2915 63.4293C39.9218 62.8356 39.2649 62.27 38.5286 61.636L38.5285 61.6359C36.4858 59.8771 33.8311 57.5914 34.9982 52.7172C36.9866 56.1663 40.3755 56.2863 42.096 55.4432C42.4236 55.1518 42.7804 54.8561 43.1682 54.5559C50.8095 48.6421 47.9297 41.906 47.0778 41.0348C50.6813 44.3532 56.5598 52.1132 51.6498 57.0234C50.6715 58.0017 49.8677 58.7938 49.1955 59.4563C47.4683 61.1586 46.6091 62.0054 45.8875 62.9565C45.1823 63.8862 44.6085 64.9156 43.4842 66.941C44.1616 66.9799 44.8636 67 45.5909 67ZM47.0778 41.0348L47.0234 40.9848C47.0404 40.9985 47.0586 41.0151 47.0778 41.0348Z" fill="white"/>
</svg>
