<svg width="103" height="40" viewBox="0 0 103 40" fill="none" xmlns="http://www.w3.org/2000/svg">
<path d="M73.3237 19.4767C71.1156 20.9603 66.7045 19.3031 64.3709 18.1404C63.6884 19.2504 62.9708 20.5973 63.0009 21.9651C64.7925 23.4855 69.1534 24.3799 72.8168 23.8433C79.0296 22.9384 81.2326 16.4989 76.2845 13.2845C74.237 11.9534 71.5472 10.7329 69.7707 9.74381C67.126 8.27072 68.2853 5.97693 71.2862 6.57668C73.2334 6.96599 75.582 7.73936 76.7111 8.21811C76.967 7.71832 77.1427 7.19222 77.3434 6.63455C77.5592 6.02954 77.785 5.21408 77.8051 4.88264C75.8028 3.18333 72.3301 2.85189 69.8409 3.05181C66.9905 3.28855 63.9143 4.44071 63.7587 7.67097C63.4877 13.3055 69.8811 13.5423 73.148 15.9886C74.4478 16.9619 74.774 18.4876 73.3187 19.4661" fill="white"/>
<path d="M44 23.9676H49V15H58.6854V11H49V8C49 7.44772 49.4477 7 50 7H60V3H49C46.2386 3 44 5.23858 44 8V23.9676Z" fill="white"/>
<path d="M82 7H88V24H93V7H99V3H82V7Z" fill="white"/>
<path d="M64.166 28.4839C64.166 29.4805 64.166 33.5189 64.166 34.4428C64.166 35.1332 64.5761 35.9948 65.6973 35.9948V29.4649C66.9015 31.1778 68.8325 33.9289 69.7564 35.237C70.6129 36.4568 71.8379 36.1454 71.8379 34.7335C71.8379 32.5067 71.8587 28.9718 71.8587 27.0824H70.2392V33.2801C68.6716 31.0169 67.0417 28.7278 66.2423 27.5911C65.5364 26.5841 64.166 27.1654 64.166 28.4839Z" fill="white"/>
<path d="M90.6749 35.9948C92.5436 35.8287 92.1958 36.1246 92.1958 32.2056C96.7481 32.1952 95.902 33.6226 96.011 34.9151C96.0785 35.7041 96.7844 35.974 97.8641 35.9948C97.7395 34.5362 97.999 31.8215 95.8708 31.8215C97.8433 31.183 98.243 27.0823 94.0437 27.0823H90.6749V35.9948ZM92.1958 30.9598V28.2451H94.2409C95.9746 28.2451 95.9176 30.9598 94.4019 30.9598H92.1958Z" fill="white"/>
<path d="M44 35.9948H45.5209V33.4358L47.2753 31.5152L49.6683 35.9948L51.6148 36L48.5004 30.176L51.3241 27.0823H49.0506L45.5209 30.9702V27.0823H44V35.9948Z" fill="white"/>
<path d="M82.6397 28.5357C82.6397 30.6639 82.6397 33.2852 82.6397 34.4428C82.6397 35.4342 83.3456 35.9948 84.2385 35.9948H87.9446C88.6298 35.9948 89.1541 35.6678 89.1541 34.557H84.2333V31.8215H88.3962V30.5705H84.2333V28.489H89.1489V27.0823H84.2333C83.2055 27.0823 82.6345 27.5755 82.6345 28.5409" fill="white"/>
<path d="M52.8346 34.4428C52.8346 35.5328 53.364 35.9948 54.4593 35.9948H59.2659V34.4428H54.4593V27.0823H52.8346V34.4428Z" fill="white"/>
<path d="M62.4218 27.0771H60.4026V35.9896H62.4218V27.0771Z" fill="white"/>
<path d="M73.8569 35.9948H75.3726V33.4358L77.1271 31.5152L79.52 35.9948L81.4665 36L78.3521 30.176L81.1758 27.0823H78.9075L75.3726 30.9702V27.0823H73.8569V35.9948Z" fill="white"/>
<rect x="20" y="3" width="17" height="9" fill="white"/>
<rect x="20" y="27" width="17" height="9" fill="white"/>
<rect y="27" width="17" height="9" fill="white"/>
<rect x="9" y="15" width="17" height="9" fill="#BE6853"/>
<rect x="29" y="15" width="8" height="9" fill="white"/>
</svg>
